<svg id="Layer_1" data-name="Layer 1" xmlns="http://www.w3.org/2000/svg" viewBox="0 0 1366 1366"><g id="base" style="opacity:0.8"><path d="M1241.62,594.79c-3.13-2.9-7-6.51-11.2-11a146,146,0,0,1-21.74-30.23h0c.3-11.5,7.56-23.84,11.93-31.27,3.39-5.76,4.7-8,3.71-10.3a3.49,3.49,0,0,0-1.94-1.83c-10.77-4.39-24.05-10-38.1-15.9C1167,487,1149.15,479.5,1135.34,474c-23.83-9.52-25.6-9.15-27.21-8.13a3.38,3.38,0,0,0-1.63,2.88c0,1.64,1.14,3.86,7,14.16,1.78,3.12,4.15,7.27,5.68,10.23,0,0,0,0,0,0-4.2-.52-11-1.58-17.25-2.56-30.9-4.82-45.41-6.58-49.69-4.23-10.94,6-48,37.19-75.13,66.58h0c-2.66.17-11.57-.37-20.19-.89-12.42-.75-29.42-1.78-45.47-2-19-.38-35.75-.63-49.19-.82-14.81-.22-27.42-.4-34.27-.66,0,0,0,0,0-.05,5.07-4.57,14.54-12.31,22.58-18.88,15.21-12.42,30.94-25.27,35.06-30.6a18.23,18.23,0,0,0,3.92-11,9.23,9.23,0,0,0-2.15-6c-2.5-2.74-8.1-2.75-8.13-2.75-5,.18-229.85,4-590.94,10a3,3,0,1,0,.1,6c359.48-6,583.91-9.78,591-10a9.31,9.31,0,0,1,3.55.8h0a3.51,3.51,0,0,1,.59,2.13,12.19,12.19,0,0,1-2.67,7.14c-3.7,4.78-19.86,18-34.11,29.63-26,21.22-28.05,23.38-28.05,26,0,3,3.06,3.25,5.52,3.42,1.76.11,4.38.22,8,.31,6.94.19,17.08.34,29.91.53,13.43.19,30.15.44,49.18.82,15.93.21,32.16,1.19,45.2,2,22.13,1.34,22.9,1.23,24.36-.36,27.66-30,64.7-60.82,74.2-66.05h0c3.91-1.68,32.28,2.75,45.91,4.88,21.26,3.32,22.77,3.39,24.38,2.28a3,3,0,0,0,1.14-1.48c.71-2.06-.19-4.1-7.78-17.41-1.3-2.3-2.86-5-4.11-7.31a0,0,0,0,1,0,0c12.06,4,43.4,17.19,67.3,27.25,13.13,5.53,25.59,10.78,36,15,0,0,0,0,0,0-.64,1.22-1.61,2.86-2.5,4.39-4.78,8.12-12.78,21.73-12.77,35.07a3,3,0,0,0,.36,1.41,151.71,151.71,0,0,0,23,32.16c4,4.31,7.77,7.81,10.86,10.67a0,0,0,0,1,0,0c-4.37-1.87-11.09-5-21.4-10.26a3.06,3.06,0,0,0-3.58.48,3,3,0,0,0,.75,4.81c4.17,2.13,8,4,11.34,5.65,0,0,0,0,0,0-3.67,11-4.07,21.63-3.76,31.61,0,0,0,0,0,0-5.4.6-19.18,0-24.81-.32a5.31,5.31,0,0,1-2-.87c-2.69-2.3-8.64-8.75-13.88-14.44-12-13-12.37-13.23-14.31-13a3.58,3.58,0,0,0-2.36,1.57c-1.36,2.58.19,5.77.36,6.12L1193.76,670a0,0,0,0,1,0,0c-24.9,2.18-46.17-9-50-11.11h0l-19.19-31.16a3,3,0,0,0-3.1-1.38c-.36.07-36.8,7-72.56,24.11a3,3,0,0,0-1.63,2c-3.48,15.15-42.93,77.57-65.68,112a3.41,3.41,0,0,0,1.87,5.16l26.59,7.92.4.1,21.59,3.4.37,0,99.08,3.36a1.24,1.24,0,0,1,.73.27l70.4,54.43s0,0,0,0l3.74,44.51s0,0,0,0l-49.57,34.28h0l-17.26-2.55s0,0,0,0l-3.53-11.12a.06.06,0,0,1,0,0L1161.27,881a3.78,3.78,0,0,0,1.21-2.95l-1-20.49a3.2,3.2,0,0,0-1.86-2.79l-58-27a3.71,3.71,0,0,0-1.64-.33c-3.17.11-72.75,2.51-137.65,5h0a3,3,0,0,0-2.07.08h0l-14.27.56c-26.64,1.06-41.5-1.17-46.73-7-4.06-4.54-2.89-12.18-1.4-21.84.42-2.77.86-5.64,1.23-8.69C901.33,776.91,931.2,691.85,931.5,691a3,3,0,0,0-5.66-2c-1.18,3.35-27.53,78.4-32.14,102.49l0,0L850.47,797h0l-84.87.28a3,3,0,0,0-2.81,2h0c-15.84,20.21-38.57,38.45-58.63,54.55-4.73,3.8-9.2,7.38-13.41,10.86-9,7.47-29.32,21.31-33.33,21.76-6.9.78-14.39,1.44-22.67,2a0,0,0,0,1,0-.05c26.09-18.85,55.46-40.17,76.76-64.66a3.12,3.12,0,0,0-.08-4.28,3,3,0,0,0-4.33.21c-21.1,24.3-50.68,45.67-76.78,64.53l-7.55,5.46,0,0c-3.38,2.46-6.67,4.86-9.83,7.22-12.12,9-38.12,24.86-43.37,25.19-35.39,2.2-77.67.83-111.65-.28-35.52-1.16-55.94-1.7-62.54.67-47.65,17.14-92,68.45-124.46,105.91-10.84,12.53-20.21,23.36-27.6,30.41-1.32,1.26-5.59,3.87-10.12,6.64-5.08,3.1-11.41,7-17.21,11.08a196.77,196.77,0,0,0-18.86,15.33c-3.39,3-6.37,5.73-7.6,5.79,0,0,0,0,0,0-1.19-4.37-.1-25.26,3.09-39.4h0c1.49-1.92,10.53-6,13.54-7.36a42.44,42.44,0,0,0,4.17-2c.44-.26,2.22-.9,3.8-1.47,7.26-2.63,19.43-7,23-14.45,1.5-3.12,3.07-7.14,4.74-11.39,3.52-9,7.9-20.15,13.66-28.15,4.34-6,10.95-13.66,13.12-16.08,7.29-8.11,20.29-22.37,25.39-26.73q9.78-8.34,19.53-16.7c24.45-20.94,49.72-42.58,73.42-62h0c3.83-.95,27.4-1.4,48.25-1.8,43.92-.84,75.54-1.67,82.39-4.71,8.21-3.65,11.22-8,17.79-17.7a412,412,0,0,1,26-34.46c.76-.92,2.21-2.46,4-4.42,8-8.57,24.79-26.42,40.2-51.25,1-1.56,1.94-3.1,2.88-4.6,7.77-12.31,13.9-22,10.25-29.32-1.23-2.47-4.3-4.82-26.55-4.09-13.62.44-28.82,1.9-38.5,3.12-19.46,2.44-39.48,5.74-54.92,9-4.28.92-9,2.09-13.67,3.22-5.55,1.35-10.79,2.64-14.94,3.44-16,3.08-28.8,6.11-39.05,8.54-5.34,1.27-9.94,2.36-13.66,3.13-1.47.31-3.47.8-6,1.43-6,1.48-15.12,3.73-25.89,5.55-16.31,2.75-26.36,4-32.49,4.64-13.19,1.45-18.57,1.73-26.19,1.32a81,81,0,0,1-20.53-4.18c-7.14-2.39-10.11-3.56-11.79-8.46a15.89,15.89,0,0,1-.78-3.72s0,0,0,0c.83.28,1.82.65,2.75,1a95.09,95.09,0,0,0,15.58,4.67c13.1,2.54,29.63,1.77,40.57,1.26,1.77-.08,3.38-.16,4.78-.21,16.11-.58,38.71-6.51,39.66-6.76,56.92-15.05,164.22-38,294.67-57.16,16-2.35,36.85-19.64,55.25-34.9,13.44-11.15,26.14-21.68,33.14-23.13,3.06-.63,6.18-1.13,9.28-1.52l.29,0c13.28-1.66,26.34-1.41,34.06-1.27s9,.18,10.19-1.45c4.43-6.06.21-20.67-1.07-24a4.12,4.12,0,0,0-3.24-2.24h0c-59.78.92-111.77,1.68-153.55,2.28-48.4.7-86.63,1.25-111.83,1.71-39.6.73-39.62.76-40.83,2.55s-.64,4,2.59,9.36c.79,1.3,3.44,5.59,4.57,6.41,1,.7,1.32,1,21.34,1.75,13,.5,31.39,1.07,53.14,1.63,47,1.21,104.77,2.29,164.44,3.06,0,0,0,0,0,.06-7.41,4.51-16.41,12-26.33,20.19-17.78,14.76-37.94,31.48-52.28,33.59-130.7,19.22-238.26,42.2-295.33,57.29-.93.24-22.89,6-38.35,6.56l-4.84.22c-10.65.49-26.75,1.24-39.14-1.16a89.81,89.81,0,0,1-14.63-4.4c-4.86-1.81-7.54-2.81-9.49-.68-2.87,3.13-.56,10.2-.29,11,2.7,7.89,8.37,9.79,15.55,12.2A88.09,88.09,0,0,0,326.51,769c8,.41,13.58.14,27.15-1.35,6.21-.68,16.37-1.91,32.84-4.69,11-1.86,20.22-4.14,26.33-5.65,2.47-.61,4.42-1.09,5.78-1.37,3.8-.79,8.44-1.89,13.82-3.17,10.2-2.42,22.89-5.43,38.8-8.49,4.3-.83,9.62-2.13,15.24-3.51,4.57-1.12,9.3-2.27,13.49-3.17,15.28-3.27,35.11-6.53,54.41-9,26.41-3.32,54.66-4.23,59.09-1.95l0,0c1.64,4.41-4.08,13.48-10.12,23.07-1,1.51-1.93,3.06-2.91,4.64-15.09,24.32-31.56,41.87-39.47,50.31-2,2.11-3.41,3.63-4.29,4.68a414.9,414.9,0,0,0-26.3,34.92c-.63.93-1.22,1.78-1.78,2.59l0,0c-20.7,1.58-21.39,2.19-22.49,3.19-4.28,3.87-8.69,7.92-13.46,12.33h0c-16.58.87-39.1,1.3-57.57,1.65-42.33.81-49.57,1.21-51.62,2.89-23.84,19.51-49.27,41.28-73.85,62.34q-9.75,8.34-19.53,16.7c-5.09,4.35-16.92,17.24-25.95,27.28-2.24,2.49-9,10.33-13.54,16.59-6.19,8.61-10.72,20.17-14.36,29.46-1.63,4.15-3.17,8.07-4.57,11-2.5,5.21-14.06,9.39-19.62,11.39a30.09,30.09,0,0,0-4.93,2c-.38.23-2,1-3.47,1.62-10.8,4.88-16.08,7.8-16.87,11.25a175.48,175.48,0,0,0-3.52,26.6c-1,16.73,1.18,18.31,2.34,19.16a6.34,6.34,0,0,0,3.79,1.36c3.47,0,7-3.19,11.73-7.44a192.6,192.6,0,0,1,18.32-14.89c5.63-4,11.86-7.81,16.87-10.86,5.42-3.32,9.34-5.71,11.13-7.42,7.6-7.25,17-18.18,28-30.83,32-37,75.78-87.57,122-104.18,3.52-1.27,14.1-1.47,28.35-1.23,0,0,0,0,0,.06-3.71,4.36-7.7,9.23-10.78,13-1.69,2.09-6.82,8.65-10.19,13.87-4.64,7.2-7.81,16.66-10.36,24.26-1.13,3.37-2.19,6.56-3.19,8.93-1.69,4-10.61,7.79-14.9,9.59a24.12,24.12,0,0,0-4,1.87c-.3.2-1.54.84-2.64,1.4-8.79,4.52-12.81,7.05-13.35,10.11a141.44,141.44,0,0,0-1.75,21.5c-.11,13.74,1.71,14.94,2.92,15.73a5.73,5.73,0,0,0,3.18,1c3.1,0,6-2.92,9.73-6.61a154.49,154.49,0,0,1,14-12.6c4.32-3.41,9.14-6.7,13-9.34,4.23-2.89,7.29-5,8.7-6.46,5.8-6.13,12.92-15.26,21.17-25.82,14.14-18.13,31.7-40.61,51.21-59h0c29.59.86,62.65,1.41,91.34-.38,8.37-.52,38.56-20.41,46.58-26.37q4.39-3.27,9.11-6.69h0c12.28-.67,22.93-1.51,32.49-2.6,6.79-.77,30.28-18,36.48-23.09,4.18-3.45,8.63-7,13.35-10.81,20.22-16.23,43.13-34.62,59.38-55.27h0l83.37-.27.37,0,41.69-5.3a0,0,0,0,1,0,0c-.26,1.92-.54,3.81-.82,5.64-1.66,10.78-3.09,20.09,2.86,26.75,6.7,7.5,22.08,10.19,51.44,9l13.88-.54h0c4.64,6.94,9.19,25.15,9.49,28.34h0c-1.16,2.48-10.31,9.17-14.75,12.43-7.5,5.49-8.91,6.59-8.91,8.73a23.08,23.08,0,0,0,1,6.19,15,15,0,0,1,.46,2s0,0,0,0c-4.08.5-15.87,1.1-24,1.52-21,1.08-21,1.08-22,3-.34.69-1,2.14.74,11.23,1.83,9.42,3,10.17,3.93,10.73,4.07,2.54,44.68,7,56.53,7a19.28,19.28,0,0,0,2.48-.11c5.15-.74,37.29-23.38,47.23-32.17.65-.58,1.26-1.06,1.79-1.49C1016,894.57,1018,893,1018,890c0-11.12,3.17-29.82,7.19-53.49l.07-.38c38.49-1.41,69.44-2.48,74.39-2.65h0l55.92,26.06v0l.85,17.76v0l-25.84,23.8a3.26,3.26,0,0,0-.9,3.37l4.58,14.45a3.28,3.28,0,0,0,2.65,2.26l19.86,2.93a3.39,3.39,0,0,0,.55,0,3.72,3.72,0,0,0,2.11-.65l51.63-35.71a3.32,3.32,0,0,0,1.41-3l-3.93-46.65a4.75,4.75,0,0,0-1.82-3.36l-70.85-54.78a7.22,7.22,0,0,0-4.2-1.51l-98.89-3.36h0l-21.2-3.35h0l-23-6.87s0,0,0,0c11.41-17.4,58-89.07,64.2-109.62l0,0c29.83-14.11,59.85-20.95,67.78-22.61h0c.38.63,18.49,30,18.49,30a3.12,3.12,0,0,0,1,1c1,.58,21.08,12.63,47,12.63a81,81,0,0,0,11.67-.84,3.09,3.09,0,0,0,2.3-1.64,3.12,3.12,0,0,0,0-2.81l-26.46-51.9a.11.11,0,0,1,.18-.13c2.39,2.58,12.14,13.12,14.78,15.37a10.82,10.82,0,0,0,5.59,2.29c15.69.75,25.46.92,29-.39a3.47,3.47,0,0,0,2.24-3.4c-.4-9.79-.27-20.29,3.14-30.93a0,0,0,0,1,0,0c3.24,1.49,6,2.67,8.19,3.52,2.67,1,5.11,1.88,7.07,1.88a3.73,3.73,0,0,0,3.44-1.75C1250.07,602.6,1247.42,600.15,1241.62,594.79ZM534,618c-1-1.34-2.72-4.09-3.92-6.24,0,0,0,0,0,0,13.65-.65,65.8-1.4,146.1-2.56,41.35-.6,92.71-1.34,151.7-2.25,0,0,0,0,0,0,1.6,5,2.71,12.42,1.71,15.65l0,0c-1.31,0-3.52,0-5.67-.05-7.91-.16-21.3-.41-35,1.32h0c-142-1.69-243.7-4.71-254.88-5.87ZM509.77,854.9c1.49-.39,6.2-.92,14-1.57,0,0,.05,0,0,.06a22.31,22.31,0,0,1-8.72,6.54c-1.77.78-6.42,1.41-12.88,1.92,0,0-.05,0,0-.06q3.89-3.56,7.55-6.88ZM422.58,983.78c-8.15,10.45-15.2,19.48-20.8,25.39a75.81,75.81,0,0,1-7.72,5.64c-3.95,2.69-8.86,6-13.34,9.58a156.58,156.58,0,0,0-14.51,13.06,43,43,0,0,1-5,4.56s0,0,0,0c-.94-4.37-.85-19.62,1-30.55v0c1.35-1.59,8-5,10.24-6.15a33.85,33.85,0,0,0,3.3-1.8c.35-.22,1.75-.81,2.89-1.28,5.78-2.43,15.46-6.5,18.11-12.8,1.08-2.58,2.18-5.86,3.34-9.35,2.44-7.28,5.48-16.35,9.71-22.91,3.22-5,8.17-11.32,9.81-13.34,4-4.92,9.52-11.64,13.92-16.68h0c7.44.19,15.6.46,24.11.73l12.4.4a0,0,0,0,1,0,.06C452,946.11,435.81,966.83,422.58,983.78ZM1012,889.91v0a10.49,10.49,0,0,1-1.66,1.48c-.6.48-1.28,1-2,1.67-11.61,10.27-40.35,29.62-44.18,30.74h0c-6.48.84-47.68-4-54.41-5.9l0,0a79.81,79.81,0,0,1-2.66-13s0,0,0,0c3.54-.28,10.65-.65,16.62-1,27.24-1.4,27.36-1.57,28.53-3.26,1.89-2.72,1.17-5.44.53-7.84a21.05,21.05,0,0,1-.73-3.65s0,0,0,0c1.21-1.07,4.05-3.15,6.4-4.87,11.73-8.58,16.71-12.77,17.19-16.5.34-2.59-3.78-19.55-8.75-29.35a0,0,0,0,1,0,0c17.63-.68,35.5-1.35,52.17-2,0,0,0,0,0,0C1015.13,859.91,1012,878.51,1012,889.91Z" style="fill:none;stroke:#fff;stroke-miterlimit:10;stroke-width:2px"/><path d="M705.57,559.33c-51.82,1.6-129.46,2.27-180.83,2.71-17.33.14-32.3.27-42.83.4-18.16.23-18.22.23-19.25,1.72a3,3,0,0,0-.36,2.77c2.3,6.27,9.89,13.53,11.13,14.29s1.83,1.13,57.92,1.31c18.24.06,39.83.08,63.38.08l62.74,0c27.78,0,56.3,0,83.73,0h0c9,0,12.39-1.08,17.85-13.7,1-2.38,2.49-6.78.69-9.51a4.55,4.55,0,0,0-3.89-2h-.08c-4.19,0-19,.67-32.13,1.25C715.61,558.93,708.63,559.24,705.57,559.33Zm48.95,4s0,0,0,0a15.26,15.26,0,0,1-1,3.09c-4.36,10.08-5.44,10.06-12.47,10.08-27.34,0-55.86,0-83.65,0-84.71,0-172.25.11-181.17-.73h0a48.87,48.87,0,0,1-6.23-7.16s0,0,0,0c9-.21,30.58-.4,54.73-.6,51.39-.44,129.06-1.11,181-2.71,3.1-.09,10.09-.4,18.19-.76C735.27,564.07,749.11,563.46,754.52,563.35Z" style="fill:none;stroke:#fff;stroke-miterlimit:10;stroke-width:2px"/><path d="M730.73,511.68h0c-18.13,1.54-60.41,2.09-105.18,2.68-19.39.25-39.45.51-58.12.86-14.19.27-41.93.6-71.29,1C365.74,517.76,365.37,518.09,364,519a3.08,3.08,0,0,0-1.42,2.24c-.22,2.18.88,3.3,9.47,10.89a31.74,31.74,0,0,0,3.18,2.49c1.33.86,2.73,1.48,17.15,1.61,8.95.08,21.9.25,38.48.32,19,.09,42.74.14,69.34.14,15,0,30.94,0,47.4,0,82.72-.14,171.68-.65,177.37-1.24a3.78,3.78,0,0,0,3.33-3c0-.06,0-.12.06-.19l1.21-3.06c5-12.58,5.43-14.36,4-16.25A3.18,3.18,0,0,0,730.73,511.68ZM724,527c-.35.87-.68,1.72-1,2.5,0,0,0,0,0,0-11.68.47-86,1-171.93,1.13-95.72.17-163.74-.13-172.12-.77h0c-.59-.53-1.5-1.29-2.95-2.51-1-.82-2.38-2-3.74-3.19a0,0,0,0,1,0,0c19-.64,78.64-1.36,124-1.91,29.37-.36,57.12-.69,71.33-1,18.66-.35,38.7-.61,58.09-.86,42-.55,81.8-1.07,101.78-2.41,0,0,0,0,0,0C726.45,520.71,724.94,524.54,724,527Z" style="fill:none;stroke:#fff;stroke-miterlimit:10;stroke-width:2px"/><path d="M1187.71,556c2.86-4.51,5-11.48,2.78-16.11-1.9-4.05-7.22-6.35-11.08-6.17a2.87,2.87,0,0,0-.41.05,2.29,2.29,0,0,0-.34.07c-3.78,1-8.22,11.77-8.22,16.65,0,7,3.34,11.89,8.12,11.89C1181.84,562.33,1185.09,560.07,1187.71,556Zm-11.27-5.51c0-3.25,2.68-8.85,4.08-10.72h0c1.72.25,3.89,1.36,4.51,2.68.85,1.81.09,6.4-2.42,10.34-1.58,2.49-3.19,3.6-4.08,3.6S1176.44,554,1176.44,550.44Z" style="fill:none;stroke:#fff;stroke-miterlimit:10;stroke-width:2px"/><path d="M1079.06,509.12h0c1.47,1.11,5,5.9,7.93,9.78,4.7,6.32,10.55,14.17,16.64,20a3.06,3.06,0,0,0,3.55.53,3,3,0,0,0,.65-4.82c-5.74-5.47-11.45-13.13-16-19.28-6.76-9.08-9.26-12.22-12.26-12.22h0c-13.67,0-30.26,15.63-31.64,26.63-1.53,12.26,10.37,26,21.25,29.14a3,3,0,0,0,.84.12,3,3,0,0,0,2.93-2.37,3.15,3.15,0,0,0-2.29-3.57c-8.38-2.58-17.89-13.62-16.77-22.58C1054.88,522.37,1068.66,509.53,1079.06,509.12Z" style="fill:none;stroke:#fff;stroke-miterlimit:10;stroke-width:2px"/></g></svg>